<?xml version="1.0" encoding="UTF-8" standalone="no"?>
<!-- Created with Inkscape (http://www.inkscape.org/) -->

<svg
   xmlns:dc="http://purl.org/dc/elements/1.1/"
   xmlns:cc="http://creativecommons.org/ns#"
   xmlns:rdf="http://www.w3.org/1999/02/22-rdf-syntax-ns#"
   xmlns:svg="http://www.w3.org/2000/svg"
   xmlns="http://www.w3.org/2000/svg"
   xmlns:sodipodi="http://sodipodi.sourceforge.net/DTD/sodipodi-0.dtd"
   xmlns:inkscape="http://www.inkscape.org/namespaces/inkscape"
   id="svg2"
   version="1.1"
   inkscape:version="0.92.2 5c3e80d, 2017-08-06"
   xml:space="preserve"
   width="188.96214"
   height="221.48741"
   viewBox="0 0 155.7 182.5"
   sodipodi:docname="tidystats-hex-sticker-smaller-numbers.svg"
   inkscape:export-filename="/Users/willem/Downloads/tidystats-hex-1.png"
   inkscape:export-xdpi="600.12964"
   inkscape:export-ydpi="600.12964"><metadata
     id="metadata8"><rdf:RDF><cc:Work
         rdf:about=""><dc:format>image/svg+xml</dc:format><dc:type
           rdf:resource="http://purl.org/dc/dcmitype/StillImage" /><dc:title /></cc:Work></rdf:RDF></metadata><defs
     id="defs6"><clipPath
       clipPathUnits="userSpaceOnUse"
       id="clipPath16"><path
         d="m 2.422,38.688 v 68.945 l 59.858,34.478 59.859,-34.478 V 38.688 L 62.28,4.211 Z"
         id="path18"
         inkscape:connector-curvature="0" /></clipPath><radialGradient
       fx="0"
       fy="0"
       cx="0"
       cy="0"
       r="1"
       gradientUnits="userSpaceOnUse"
       gradientTransform="matrix(64.567177,0,0,-64.564835,65.073593,36.61673)"
       spreadMethod="pad"
       id="radialGradient24"><stop
         style="stop-opacity:1;stop-color:#cf8484"
         offset="0"
         id="stop26" /><stop
         style="stop-opacity:1;stop-color:#b02626"
         offset="1"
         id="stop28" /></radialGradient><clipPath
       clipPathUnits="userSpaceOnUse"
       id="clipPath44"><path
         d="M 0,146 H 124.56 V 0 H 0 Z"
         id="path46"
         inkscape:connector-curvature="0" /></clipPath><clipPath
       clipPathUnits="userSpaceOnUse"
       id="clipPath196"><path
         d="m 79.288,86.078 c -1.013,0 -1.843,-0.83 -1.843,-1.843 v 0 c 0,-1.015 0.83,-1.844 1.843,-1.844 v 0 h 10.058 c 1.013,0 1.843,0.829 1.843,1.844 v 0 c 0,1.013 -0.83,1.843 -1.843,1.843 v 0 z m -15.365,0 c -1.014,0 -1.844,-0.83 -1.844,-1.843 v 0 c 0,-1.015 0.83,-1.844 1.844,-1.844 v 0 h 8.964 c 1.015,0 1.845,0.829 1.845,1.844 v 0 c 0,1.013 -0.83,1.843 -1.845,1.843 v 0 z m -17.551,0 c -1.014,0 -1.843,-0.83 -1.843,-1.843 v 0 c 0,-1.015 0.829,-1.844 1.843,-1.844 v 0 H 56.43 c 1.013,0 1.843,0.829 1.843,1.844 v 0 c 0,1.013 -0.83,1.843 -1.843,1.843 v 0 z m -11.081,0 c -1.014,0 -1.844,-0.83 -1.844,-1.843 v 0 c 0,-1.015 0.83,-1.844 1.844,-1.844 v 0 h 4.681 c 1.014,0 1.844,0.829 1.844,1.844 v 0 c 0,1.013 -0.83,1.843 -1.844,1.843 v 0 z m 42.971,-6.399 c -0.45,0 -0.817,-0.368 -0.817,-0.817 v 0 c 0,-0.449 0.367,-0.818 0.817,-0.818 v 0 h 11.987 c 0.45,0 0.817,0.369 0.817,0.818 v 0 c 0,0.449 -0.367,0.817 -0.817,0.817 v 0 z m -15.038,0 c -0.449,0 -0.817,-0.368 -0.817,-0.817 v 0 c 0,-0.449 0.368,-0.818 0.817,-0.818 v 0 h 10.581 c 0.449,0 0.817,0.369 0.817,0.818 v 0 c 0,0.449 -0.368,0.817 -0.817,0.817 v 0 z m -12.654,0 c -0.449,0 -0.817,-0.368 -0.817,-0.817 v 0 c 0,-0.449 0.368,-0.818 0.817,-0.818 v 0 h 6.836 c 0.449,0 0.817,0.369 0.817,0.818 v 0 c 0,0.449 -0.368,0.817 -0.817,0.817 v 0 z m -16.382,0 c -0.449,0 -0.817,-0.368 -0.817,-0.817 v 0 c 0,-0.449 0.368,-0.818 0.817,-0.818 v 0 h 6.836 c 0.449,0 0.817,0.369 0.817,0.818 v 0 c 0,0.449 -0.368,0.817 -0.817,0.817 v 0 z m 44.074,-3.12 c -0.45,0 -0.817,-0.367 -0.817,-0.817 v 0 c 0,-0.449 0.367,-0.817 0.817,-0.817 v 0 h 11.987 c 0.45,0 0.817,0.368 0.817,0.817 v 0 c 0,0.45 -0.367,0.817 -0.817,0.817 v 0 z m -15.038,0 c -0.449,0 -0.817,-0.367 -0.817,-0.817 v 0 c 0,-0.449 0.368,-0.817 0.817,-0.817 v 0 h 10.581 c 0.449,0 0.817,0.368 0.817,0.817 v 0 c 0,0.45 -0.368,0.817 -0.817,0.817 v 0 z m -17.878,0 c -0.45,0 -0.817,-0.367 -0.817,-0.817 v 0 c 0,-0.449 0.367,-0.817 0.817,-0.817 v 0 h 12.06 c 0.449,0 0.817,0.368 0.817,0.817 v 0 c 0,0.45 -0.368,0.817 -0.817,0.817 v 0 z m -11.158,0 c -0.449,0 -0.817,-0.367 -0.817,-0.817 v 0 c 0,-0.449 0.368,-0.817 0.817,-0.817 v 0 h 6.836 c 0.449,0 0.817,0.368 0.817,0.817 v 0 c 0,0.45 -0.368,0.817 -0.817,0.817 v 0 z m 44.074,-3.118 c -0.45,0 -0.817,-0.368 -0.817,-0.817 v 0 c 0,-0.45 0.367,-0.817 0.817,-0.817 v 0 h 11.987 c 0.45,0 0.817,0.367 0.817,0.817 v 0 c 0,0.449 -0.367,0.817 -0.817,0.817 v 0 z m -15.038,0 c -0.449,0 -0.817,-0.368 -0.817,-0.817 v 0 c 0,-0.45 0.368,-0.817 0.817,-0.817 v 0 h 10.581 c 0.449,0 0.817,0.367 0.817,0.817 v 0 c 0,0.449 -0.368,0.817 -0.817,0.817 v 0 z m -6.352,0 c -0.45,0 -0.817,-0.368 -0.817,-0.817 v 0 c 0,-0.45 0.367,-0.817 0.817,-0.817 v 0 h 0.534 c 0.449,0 0.817,0.367 0.817,0.817 v 0 c 0,0.449 -0.368,0.817 -0.817,0.817 v 0 z m -22.684,0 c -0.449,0 -0.817,-0.368 -0.817,-0.817 v 0 c 0,-0.45 0.368,-0.817 0.817,-0.817 v 0 h 6.836 c 0.449,0 0.817,0.367 0.817,0.817 v 0 c 0,0.449 -0.368,0.817 -0.817,0.817 v 0 z m 44.074,-3.119 c -0.45,0 -0.817,-0.368 -0.817,-0.818 v 0 c 0,-0.449 0.367,-0.817 0.817,-0.817 v 0 h 11.987 c 0.45,0 0.817,0.368 0.817,0.817 v 0 c 0,0.45 -0.367,0.818 -0.817,0.818 v 0 z m -10.878,0 c -0.449,0 -0.817,-0.368 -0.817,-0.818 v 0 c 0,-0.449 0.368,-0.817 0.817,-0.817 v 0 h 6.421 c 0.449,0 0.817,0.368 0.817,0.817 v 0 c 0,0.45 -0.368,0.818 -0.817,0.818 v 0 z m -12.68,0 c -0.45,0 -0.817,-0.368 -0.817,-0.818 v 0 c 0,-0.449 0.367,-0.817 0.817,-0.817 v 0 h 2.702 c 0.449,0 0.817,0.368 0.817,0.817 v 0 c 0,0.45 -0.368,0.818 -0.817,0.818 v 0 z m -20.516,0 c -0.449,0 -0.817,-0.368 -0.817,-0.818 v 0 c 0,-0.449 0.368,-0.817 0.817,-0.817 v 0 h 6.836 c 0.449,0 0.817,0.368 0.817,0.817 v 0 c 0,0.45 -0.368,0.818 -0.817,0.818 v 0 z m 44.197,-3.119 c -0.45,0 -0.818,-0.368 -0.818,-0.817 v 0 c 0,-0.45 0.368,-0.817 0.818,-0.817 v 0 h 11.987 c 0.45,0 0.817,0.367 0.817,0.817 v 0 c 0,0.449 -0.367,0.817 -0.817,0.817 v 0 z m -15.051,0 c -0.449,0 -0.817,-0.368 -0.817,-0.817 v 0 c 0,-0.45 0.368,-0.817 0.817,-0.817 v 0 h 10.58 c 0.449,0 0.818,0.367 0.818,0.817 v 0 c 0,0.449 -0.369,0.817 -0.818,0.817 v 0 z m -11.57,0 c -0.45,0 -0.817,-0.368 -0.817,-0.817 v 0 c 0,-0.45 0.367,-0.817 0.817,-0.817 v 0 h 5.717 c 0.45,0 0.817,0.367 0.817,0.817 v 0 c 0,0.449 -0.367,0.817 -0.817,0.817 v 0 z m -17.499,0 c -0.45,0 -0.818,-0.368 -0.818,-0.817 v 0 c 0,-0.45 0.368,-0.817 0.818,-0.817 v 0 h 6.834 c 0.45,0 0.818,0.367 0.818,0.817 v 0 c 0,0.449 -0.368,0.817 -0.818,0.817 v 0 z m 44.12,-3.119 c -0.45,0 -0.818,-0.369 -0.818,-0.818 v 0 c 0,-0.449 0.368,-0.817 0.818,-0.817 v 0 h 11.987 c 0.45,0 0.817,0.368 0.817,0.817 v 0 c 0,0.449 -0.367,0.818 -0.817,0.818 v 0 z m -12.39,0 c -0.449,0 -0.817,-0.369 -0.817,-0.818 v 0 c 0,-0.449 0.368,-0.817 0.817,-0.817 v 0 h 7.919 c 0.449,0 0.818,0.368 0.818,0.817 v 0 c 0,0.449 -0.369,0.818 -0.818,0.818 v 0 z m -8.781,0 c -0.449,0 -0.817,-0.369 -0.817,-0.818 v 0 c 0,-0.449 0.368,-0.817 0.817,-0.817 v 0 h 0.267 c 0.45,0 0.817,0.368 0.817,0.817 v 0 c 0,0.449 -0.367,0.818 -0.817,0.818 v 0 z m -22.949,0 c -0.45,0 -0.818,-0.369 -0.818,-0.818 v 0 c 0,-0.449 0.368,-0.817 0.818,-0.817 v 0 h 6.834 c 0.45,0 0.818,0.368 0.818,0.817 v 0 c 0,0.449 -0.368,0.818 -0.818,0.818 v 0 z m 44.12,-3.119 c -0.45,0 -0.818,-0.368 -0.818,-0.818 v 0 c 0,-0.449 0.368,-0.817 0.818,-0.817 v 0 h 11.987 c 0.45,0 0.817,0.368 0.817,0.817 v 0 c 0,0.45 -0.367,0.818 -0.817,0.818 v 0 z m -14.507,0 c -0.45,0 -0.818,-0.368 -0.818,-0.818 v 0 c 0,-0.449 0.368,-0.817 0.818,-0.817 v 0 h 10.036 c 0.449,0 0.818,0.368 0.818,0.817 v 0 c 0,0.45 -0.369,0.818 -0.818,0.818 v 0 z m -17.064,0 c -0.449,0 -0.817,-0.368 -0.817,-0.818 v 0 c 0,-0.449 0.368,-0.817 0.817,-0.817 v 0 h 10.667 c 0.45,0 0.817,0.368 0.817,0.817 v 0 c 0,0.45 -0.367,0.818 -0.817,0.818 v 0 z m -12.549,0 c -0.45,0 -0.818,-0.368 -0.818,-0.818 v 0 c 0,-0.449 0.368,-0.817 0.818,-0.817 v 0 h 6.834 c 0.45,0 0.818,0.368 0.818,0.817 v 0 c 0,0.45 -0.368,0.818 -0.818,0.818 v 0 z m 44.12,-3.119 c -0.45,0 -0.818,-0.368 -0.818,-0.817 v 0 c 0,-0.45 0.368,-0.818 0.818,-0.818 v 0 h 11.987 c 0.45,0 0.817,0.368 0.817,0.818 v 0 c 0,0.449 -0.367,0.817 -0.817,0.817 v 0 z m -15.051,0 c -0.449,0 -0.817,-0.368 -0.817,-0.817 v 0 c 0,-0.45 0.368,-0.818 0.817,-0.818 v 0 h 10.58 c 0.449,0 0.818,0.368 0.818,0.818 v 0 c 0,0.449 -0.369,0.817 -0.818,0.817 v 0 z m -11.769,0 c -0.45,0 -0.818,-0.368 -0.818,-0.817 v 0 c 0,-0.45 0.368,-0.818 0.818,-0.818 v 0 h 5.916 c 0.45,0 0.817,0.368 0.817,0.818 v 0 c 0,0.449 -0.367,0.817 -0.817,0.817 v 0 z m -17.3,0 c -0.45,0 -0.818,-0.368 -0.818,-0.817 v 0 c 0,-0.45 0.368,-0.818 0.818,-0.818 v 0 h 6.834 c 0.45,0 0.818,0.368 0.818,0.818 v 0 c 0,0.449 -0.368,0.817 -0.818,0.817 v 0 z"
         id="path198"
         inkscape:connector-curvature="0" /></clipPath><clipPath
       clipPathUnits="userSpaceOnUse"
       id="clipPath204"><path
         d="M -32768,32767 H 32767 V -32768 H -32768 Z"
         id="path206"
         inkscape:connector-curvature="0" /></clipPath><linearGradient
       x1="0"
       y1="0"
       x2="1"
       y2="0"
       gradientUnits="userSpaceOnUse"
       gradientTransform="matrix(0,29.86697,29.86697,0,62.280125,56.211143)"
       spreadMethod="pad"
       id="linearGradient208"><stop
         style="stop-opacity:0.2;stop-color:#ffffff"
         offset="0"
         id="stop210" /><stop
         style="stop-opacity:1;stop-color:#ffffff"
         offset="1"
         id="stop212" /></linearGradient><mask
       maskUnits="userSpaceOnUse"
       x="0"
       y="0"
       width="1"
       height="1"
       id="mask214"><g
         id="g216"><g
           clip-path="url(#clipPath204)"
           id="g218"><g
             id="g220"><g
               id="g222"><path
                 d="M -32768,32767 H 32767 V -32768 H -32768 Z"
                 style="fill:url(#linearGradient208);stroke:none"
                 id="path224"
                 inkscape:connector-curvature="0" /></g></g></g></g></mask><linearGradient
       x1="0"
       y1="0"
       x2="1"
       y2="0"
       gradientUnits="userSpaceOnUse"
       gradientTransform="matrix(0,29.86697,29.86697,0,62.280125,56.211143)"
       spreadMethod="pad"
       id="linearGradient230"><stop
         style="stop-opacity:1;stop-color:#ffffff"
         offset="0"
         id="stop232" /><stop
         style="stop-opacity:1;stop-color:#ffffff"
         offset="1"
         id="stop234" /></linearGradient><clipPath
       clipPathUnits="userSpaceOnUse"
       id="clipPath242"><path
         d="M 0,146 H 124.56 V 0 H 0 Z"
         id="path244"
         inkscape:connector-curvature="0" /></clipPath></defs><sodipodi:namedview
     pagecolor="#ffffff"
     bordercolor="#666666"
     borderopacity="1"
     objecttolerance="10"
     gridtolerance="10"
     guidetolerance="10"
     inkscape:pageopacity="0"
     inkscape:pageshadow="2"
     inkscape:window-width="1687"
     inkscape:window-height="965"
     id="namedview4"
     showgrid="false"
     inkscape:zoom="3.0999146"
     inkscape:cx="74.95722"
     inkscape:cy="114.09648"
     inkscape:window-x="116"
     inkscape:window-y="15"
     inkscape:window-maximized="0"
     inkscape:current-layer="layer1"
     showguides="true"
     inkscape:measure-start="0,0"
     inkscape:measure-end="0,0"><inkscape:grid
       type="xygrid"
       id="grid1061"
       originx="0"
       originy="0"
       spacingx="1.1377778"
       spacingy="1.1377778" /></sodipodi:namedview><g
     inkscape:groupmode="layer"
     id="layer4"
     inkscape:label="Background"
     style="display:inline"><g
       transform="matrix(1.25,0,0,-1.25,0,182.5)"
       clip-path="url(#clipPath16)"
       id="g14"
       style="fill:#1c3646;fill-opacity:1"
       sodipodi:insensitive="true"><g
         id="g20"
         style="fill:#1c3646;fill-opacity:1"><g
           id="g22"
           style="fill:#1c3646;fill-opacity:1"><path
             inkscape:connector-curvature="0"
             id="path30"
             style="fill:#1c3646;fill-opacity:1;stroke:none"
             d="m 2.422,38.688 v 68.945 l 59.858,34.478 59.859,-34.478 V 38.688 L 62.28,4.211 Z" /></g></g></g></g><g
     id="g10"
     inkscape:groupmode="layer"
     inkscape:label="Border"
     transform="matrix(1.25,0,0,-1.25,0,182.5)"
     style="display:inline"><g
       id="g32"
       transform="translate(0,109.0332)"
       inkscape:export-filename="/Users/Luke/Downloads/title.png"
       inkscape:export-xdpi="300"
       inkscape:export-ydpi="300"
       style="fill:#dde3e7;fill-opacity:1"
       sodipodi:insensitive="true"><path
         d="m 0,0 v -71.745 l 62.28,-35.872 62.28,35.872 V 0 L 62.28,35.872 Z M 4.844,-68.945 V -2.8 L 62.28,30.282 119.716,-2.8 V -68.945 L 62.28,-102.027 Z"
         style="fill:#dde3e7;fill-opacity:1;fill-rule:nonzero;stroke:none"
         id="path34"
         inkscape:connector-curvature="0" /></g></g><g
     inkscape:groupmode="layer"
     id="layer3"
     inkscape:label="Bioconductor"
     style="display:inline" /><g
     inkscape:groupmode="layer"
     id="layer2"
     inkscape:label="Logo"
     style="display:inline" /><g
     inkscape:groupmode="layer"
     id="layer1"
     inkscape:label="Title"
     style="display:inline"><text
       transform="scale(1.0000201,0.99997991)"
       style="font-variant:normal;font-weight:300;font-stretch:normal;line-height:0%;font-family:'Aller Light';-inkscape-font-specification:Aller-Light;writing-mode:lr-tb;fill:#ffffff;fill-opacity:1;fill-rule:nonzero;stroke:none"
       id="text36"
       x="34.467045"
       y="133.21387"><tspan
         sodipodi:role="line"
         id="tspan38"
         x="34.467045"
         y="133.21387"
         style="font-style:normal;font-variant:normal;font-weight:500;font-stretch:normal;font-size:22.5px;line-height:1.25;font-family:Avenir;-inkscape-font-specification:'Avenir, Medium';text-align:start;writing-mode:lr-tb;text-anchor:start">tidystats</tspan></text>
<text
       xml:space="preserve"
       style="font-style:normal;font-variant:normal;font-weight:500;font-stretch:normal;line-height:0%;font-family:Avenir;-inkscape-font-specification:'Avenir, Medium';text-align:start;letter-spacing:0px;word-spacing:0px;writing-mode:lr-tb;text-anchor:start;fill:#dde3e7;fill-opacity:1;stroke:none;stroke-width:0.9375"
       x="88.494156"
       y="60.794083"
       id="text947"
       transform="rotate(6.8707066)"><tspan
         sodipodi:role="line"
         id="tspan945"
         x="88.494156"
         y="60.794083"
         style="font-style:normal;font-variant:normal;font-weight:500;font-stretch:normal;font-size:11.71874905px;line-height:125%;font-family:Avenir;-inkscape-font-specification:'Avenir, Medium';text-align:start;writing-mode:lr-tb;text-anchor:start;fill:#dde3e7;fill-opacity:1;stroke-width:0.9375">8</tspan></text>
<text
       id="text983"
       y="98.667358"
       x="58.925251"
       style="font-style:normal;font-variant:normal;font-weight:500;font-stretch:normal;line-height:0%;font-family:Avenir;-inkscape-font-specification:'Avenir, Medium';text-align:start;letter-spacing:0px;word-spacing:0px;writing-mode:lr-tb;text-anchor:start;fill:#dde3e7;fill-opacity:1;stroke:none;stroke-width:0.9375"
       xml:space="preserve"><tspan
         style="font-style:normal;font-variant:normal;font-weight:500;font-stretch:normal;font-size:11.71874905px;line-height:125%;font-family:Avenir;-inkscape-font-specification:'Avenir, Medium';text-align:start;writing-mode:lr-tb;text-anchor:start;fill:#dde3e7;fill-opacity:1;stroke-width:0.9375"
         y="98.667358"
         x="58.925251"
         id="tspan981"
         sodipodi:role="line">7</tspan></text>
<text
       xml:space="preserve"
       style="font-style:normal;font-variant:normal;font-weight:500;font-stretch:normal;line-height:0%;font-family:Avenir;-inkscape-font-specification:'Avenir, Medium';text-align:start;letter-spacing:0px;word-spacing:0px;writing-mode:lr-tb;text-anchor:start;fill:#dde3e7;fill-opacity:1;stroke:none;stroke-width:0.9375"
       x="20.097858"
       y="89.862274"
       id="text987"
       transform="rotate(-38.995664)"><tspan
         sodipodi:role="line"
         id="tspan985"
         x="20.097858"
         y="89.862274"
         style="font-style:normal;font-variant:normal;font-weight:500;font-stretch:normal;font-size:11.71874905px;line-height:125%;font-family:Avenir;-inkscape-font-specification:'Avenir, Medium';text-align:start;writing-mode:lr-tb;text-anchor:start;fill:#dde3e7;fill-opacity:1;stroke-width:0.9375">2</tspan></text>
<text
       id="text991"
       y="111.37301"
       x="79.741585"
       style="font-style:normal;font-variant:normal;font-weight:500;font-stretch:normal;line-height:0%;font-family:Avenir;-inkscape-font-specification:'Avenir, Medium';text-align:start;letter-spacing:0px;word-spacing:0px;writing-mode:lr-tb;text-anchor:start;fill:#dde3e7;fill-opacity:1;stroke:none;stroke-width:0.9375"
       xml:space="preserve"><tspan
         style="font-style:normal;font-variant:normal;font-weight:500;font-stretch:normal;font-size:11.71874905px;line-height:125%;font-family:Avenir;-inkscape-font-specification:'Avenir, Medium';text-align:start;writing-mode:lr-tb;text-anchor:start;fill:#dde3e7;fill-opacity:1;stroke-width:0.9375"
         y="111.37301"
         x="79.741585"
         id="tspan989"
         sodipodi:role="line">4</tspan></text>
<text
       id="text995"
       y="78.764755"
       x="-23.166035"
       style="font-style:normal;font-variant:normal;font-weight:500;font-stretch:normal;line-height:0%;font-family:Avenir;-inkscape-font-specification:'Avenir, Medium';text-align:start;letter-spacing:0px;word-spacing:0px;writing-mode:lr-tb;text-anchor:start;fill:#dde3e7;fill-opacity:1;stroke:none;stroke-width:0.9375"
       xml:space="preserve"
       transform="rotate(-62.533052)"><tspan
         style="font-style:normal;font-variant:normal;font-weight:500;font-stretch:normal;font-size:11.71874905px;line-height:125%;font-family:Avenir;-inkscape-font-specification:'Avenir, Medium';text-align:start;writing-mode:lr-tb;text-anchor:start;fill:#dde3e7;fill-opacity:1;stroke-width:0.9375"
         y="78.764755"
         x="-23.166035"
         id="tspan993"
         sodipodi:role="line">9</tspan></text>
<text
       id="text999"
       y="76.235146"
       x="-38.228451"
       style="font-style:normal;font-variant:normal;font-weight:500;font-stretch:normal;line-height:0%;font-family:Avenir;-inkscape-font-specification:'Avenir, Medium';text-align:start;letter-spacing:0px;word-spacing:0px;writing-mode:lr-tb;text-anchor:start;fill:#dde3e7;fill-opacity:1;stroke:none;stroke-width:0.9375"
       xml:space="preserve"
       transform="rotate(-103.85068)"
       inkscape:transform-center-x="15.082316"
       inkscape:transform-center-y="8.2133582"><tspan
         style="font-style:normal;font-variant:normal;font-weight:500;font-stretch:normal;font-size:9.375px;line-height:125%;font-family:Avenir;-inkscape-font-specification:'Avenir, Medium';text-align:start;writing-mode:lr-tb;text-anchor:start;fill:#dde3e7;fill-opacity:1;stroke-width:0.9375"
         y="76.235146"
         x="-38.228451"
         id="tspan997"
         sodipodi:role="line">1</tspan></text>
<text
       id="text1003"
       y="65.34404"
       x="-35.441032"
       style="font-style:normal;font-variant:normal;font-weight:500;font-stretch:normal;line-height:0%;font-family:Avenir;-inkscape-font-specification:'Avenir, Medium';text-align:start;letter-spacing:0px;word-spacing:0px;writing-mode:lr-tb;text-anchor:start;fill:#dde3e7;fill-opacity:1;stroke:none;stroke-width:0.9375"
       xml:space="preserve"
       transform="rotate(-83.49902)"
       inkscape:transform-center-x="4.8493611"
       inkscape:transform-center-y="-1.0391488"><tspan
         style="font-style:normal;font-variant:normal;font-weight:500;font-stretch:normal;font-size:10.54687405px;line-height:125%;font-family:Avenir;-inkscape-font-specification:'Avenir, Medium';text-align:start;writing-mode:lr-tb;text-anchor:start;fill:#dde3e7;fill-opacity:1;stroke-width:0.9375"
         y="65.34404"
         x="-35.441032"
         id="tspan1001"
         sodipodi:role="line">3</tspan></text>
<text
       id="text1007"
       y="-66.477959"
       x="64.497787"
       style="font-style:normal;font-variant:normal;font-weight:500;font-stretch:normal;line-height:0%;font-family:Avenir;-inkscape-font-specification:'Avenir, Medium';text-align:start;letter-spacing:0px;word-spacing:0px;writing-mode:lr-tb;text-anchor:start;fill:#dde3e7;fill-opacity:1;stroke:none;stroke-width:0.9375"
       xml:space="preserve"
       transform="rotate(70.039796)"
       inkscape:transform-center-x="-4.4468169"
       inkscape:transform-center-y="-1.398014"><tspan
         style="font-style:normal;font-variant:normal;font-weight:500;font-stretch:normal;font-size:10.54687405px;line-height:125%;font-family:Avenir;-inkscape-font-specification:'Avenir, Medium';text-align:start;writing-mode:lr-tb;text-anchor:start;fill:#dde3e7;fill-opacity:1;stroke-width:0.9375"
         y="-66.477959"
         x="64.497787"
         id="tspan1005"
         sodipodi:role="line">5</tspan></text>
<text
       id="text1011"
       y="111.13523"
       x="90.252464"
       style="font-style:normal;font-variant:normal;font-weight:500;font-stretch:normal;line-height:0%;font-family:Avenir;-inkscape-font-specification:'Avenir, Medium';text-align:start;letter-spacing:0px;word-spacing:0px;writing-mode:lr-tb;text-anchor:start;fill:#dde3e7;fill-opacity:1;stroke:none;stroke-width:0.9375"
       xml:space="preserve"><tspan
         style="font-style:normal;font-variant:normal;font-weight:500;font-stretch:normal;font-size:11.71874905px;line-height:125%;font-family:Avenir;-inkscape-font-specification:'Avenir, Medium';text-align:start;writing-mode:lr-tb;text-anchor:start;fill:#dde3e7;fill-opacity:1;stroke-width:0.9375"
         y="111.13523"
         x="90.252464"
         id="tspan1009"
         sodipodi:role="line">6</tspan></text>
<text
       xml:space="preserve"
       style="font-style:normal;font-variant:normal;font-weight:500;font-stretch:normal;line-height:0%;font-family:Avenir;-inkscape-font-specification:'Avenir, Medium';text-align:start;letter-spacing:0px;word-spacing:0px;writing-mode:lr-tb;text-anchor:start;fill:#dde3e7;fill-opacity:1;stroke:none;stroke-width:0.9375"
       x="96.080536"
       y="17.902653"
       id="text1015"
       transform="rotate(23.539103)"><tspan
         sodipodi:role="line"
         id="tspan1013"
         x="96.080536"
         y="17.902653"
         style="font-style:normal;font-variant:normal;font-weight:500;font-stretch:normal;font-size:11.71874905px;line-height:125%;font-family:Avenir;-inkscape-font-specification:'Avenir, Medium';text-align:start;writing-mode:lr-tb;text-anchor:start;fill:#dde3e7;fill-opacity:1;stroke-width:0.9375">6</tspan></text>
<text
       xml:space="preserve"
       style="font-style:normal;font-variant:normal;font-weight:500;font-stretch:normal;line-height:0%;font-family:Avenir;-inkscape-font-specification:'Avenir, Medium';text-align:start;letter-spacing:0px;word-spacing:0px;writing-mode:lr-tb;text-anchor:start;fill:#dde3e7;fill-opacity:1;stroke:none;stroke-width:0.9375"
       x="26.441954"
       y="88.583549"
       id="text1019"
       transform="rotate(-22.393604)"><tspan
         sodipodi:role="line"
         id="tspan1017"
         x="26.441954"
         y="88.583549"
         style="font-style:normal;font-variant:normal;font-weight:500;font-stretch:normal;font-size:11.71874905px;line-height:125%;font-family:Avenir;-inkscape-font-specification:'Avenir, Medium';text-align:start;writing-mode:lr-tb;text-anchor:start;fill:#dde3e7;fill-opacity:1;stroke-width:0.9375">3</tspan></text>
<text
       id="text1031"
       y="83.750092"
       x="56.97163"
       style="font-style:normal;font-variant:normal;font-weight:500;font-stretch:normal;line-height:0%;font-family:Avenir;-inkscape-font-specification:'Avenir, Medium';text-align:start;letter-spacing:0px;word-spacing:0px;writing-mode:lr-tb;text-anchor:start;fill:#dde3e7;fill-opacity:1;stroke:none;stroke-width:0.9375"
       xml:space="preserve"
       transform="rotate(-9.9665875)"><tspan
         style="font-style:normal;font-variant:normal;font-weight:500;font-stretch:normal;font-size:11.71874905px;line-height:125%;font-family:Avenir;-inkscape-font-specification:'Avenir, Medium';text-align:start;writing-mode:lr-tb;text-anchor:start;fill:#dde3e7;fill-opacity:1;stroke-width:0.9375"
         y="83.750092"
         x="56.97163"
         id="tspan1029"
         sodipodi:role="line">5</tspan></text>
<text
       xml:space="preserve"
       style="font-style:normal;font-variant:normal;font-weight:500;font-stretch:normal;line-height:0%;font-family:Avenir;-inkscape-font-specification:'Avenir, Medium';text-align:start;letter-spacing:0px;word-spacing:0px;writing-mode:lr-tb;text-anchor:start;fill:#dde3e7;fill-opacity:1;stroke:none;stroke-width:0.9375"
       x="100.16984"
       y="58.296234"
       id="text1035"
       transform="rotate(7.4112917)"><tspan
         sodipodi:role="line"
         id="tspan1033"
         x="100.16984"
         y="58.296234"
         style="font-style:normal;font-variant:normal;font-weight:500;font-stretch:normal;font-size:11.71874905px;line-height:125%;font-family:Avenir;-inkscape-font-specification:'Avenir, Medium';text-align:start;writing-mode:lr-tb;text-anchor:start;fill:#dde3e7;fill-opacity:1;stroke-width:0.9375">9</tspan></text>
<text
       id="text1039"
       y="-36.79195"
       x="101.78244"
       style="font-style:normal;font-variant:normal;font-weight:500;font-stretch:normal;line-height:0%;font-family:Avenir;-inkscape-font-specification:'Avenir, Medium';text-align:start;letter-spacing:0px;word-spacing:0px;writing-mode:lr-tb;text-anchor:start;fill:#dde3e7;fill-opacity:1;stroke:none;stroke-width:0.9375"
       xml:space="preserve"
       transform="rotate(49.045861)"><tspan
         style="font-style:normal;font-variant:normal;font-weight:500;font-stretch:normal;font-size:11.71874905px;line-height:125%;font-family:Avenir;-inkscape-font-specification:'Avenir, Medium';text-align:start;writing-mode:lr-tb;text-anchor:start;fill:#dde3e7;fill-opacity:1;stroke-width:0.9375"
         y="-36.79195"
         x="101.78244"
         id="tspan1037"
         sodipodi:role="line">5</tspan></text>
<text
       xml:space="preserve"
       style="font-style:normal;font-variant:normal;font-weight:500;font-stretch:normal;line-height:0%;font-family:Avenir;-inkscape-font-specification:'Avenir, Medium';text-align:start;letter-spacing:0px;word-spacing:0px;writing-mode:lr-tb;text-anchor:start;fill:#dde3e7;fill-opacity:1;stroke:none;stroke-width:0.9375"
       x="70.05529"
       y="98.486725"
       id="text1043"><tspan
         sodipodi:role="line"
         id="tspan1041"
         x="70.05529"
         y="98.486725"
         style="font-style:normal;font-variant:normal;font-weight:500;font-stretch:normal;font-size:11.71874905px;line-height:125%;font-family:Avenir;-inkscape-font-specification:'Avenir, Medium';text-align:start;writing-mode:lr-tb;text-anchor:start;fill:#dde3e7;fill-opacity:1;stroke-width:0.9375">9</tspan></text>
<text
       id="text1047"
       y="98.521111"
       x="80.282211"
       style="font-style:normal;font-variant:normal;font-weight:500;font-stretch:normal;line-height:0%;font-family:Avenir;-inkscape-font-specification:'Avenir, Medium';text-align:start;letter-spacing:0px;word-spacing:0px;writing-mode:lr-tb;text-anchor:start;fill:#dde3e7;fill-opacity:1;stroke:none;stroke-width:0.9375"
       xml:space="preserve"><tspan
         style="font-style:normal;font-variant:normal;font-weight:500;font-stretch:normal;font-size:11.71874905px;line-height:125%;font-family:Avenir;-inkscape-font-specification:'Avenir, Medium';text-align:start;writing-mode:lr-tb;text-anchor:start;fill:#dde3e7;fill-opacity:1;stroke-width:0.9375"
         y="98.521111"
         x="80.282211"
         id="tspan1045"
         sodipodi:role="line">3</tspan></text>
<text
       xml:space="preserve"
       style="font-style:normal;font-variant:normal;font-weight:500;font-stretch:normal;line-height:0%;font-family:Avenir;-inkscape-font-specification:'Avenir, Medium';text-align:start;letter-spacing:0px;word-spacing:0px;writing-mode:lr-tb;text-anchor:start;fill:#dde3e7;fill-opacity:1;stroke:none;stroke-width:0.9375"
       x="90.509132"
       y="98.125481"
       id="text1051"><tspan
         sodipodi:role="line"
         id="tspan1049"
         x="90.509132"
         y="98.125481"
         style="font-style:normal;font-variant:normal;font-weight:500;font-stretch:normal;font-size:11.71874905px;line-height:125%;font-family:Avenir;-inkscape-font-specification:'Avenir, Medium';text-align:start;writing-mode:lr-tb;text-anchor:start;fill:#dde3e7;fill-opacity:1;stroke-width:0.9375">2</tspan></text>
<text
       id="text1055"
       y="111.144"
       x="69.795113"
       style="font-style:normal;font-variant:normal;font-weight:500;font-stretch:normal;line-height:0%;font-family:Avenir;-inkscape-font-specification:'Avenir, Medium';text-align:start;letter-spacing:0px;word-spacing:0px;writing-mode:lr-tb;text-anchor:start;fill:#dde3e7;fill-opacity:1;stroke:none;stroke-width:0.9375"
       xml:space="preserve"><tspan
         style="font-style:normal;font-variant:normal;font-weight:500;font-stretch:normal;font-size:11.71874905px;line-height:125%;font-family:Avenir;-inkscape-font-specification:'Avenir, Medium';text-align:start;writing-mode:lr-tb;text-anchor:start;fill:#dde3e7;fill-opacity:1;stroke-width:0.9375"
         y="111.144"
         x="69.795113"
         id="tspan1053"
         sodipodi:role="line">8</tspan></text>
<text
       xml:space="preserve"
       style="font-style:normal;font-variant:normal;font-weight:500;font-stretch:normal;line-height:0%;font-family:Avenir;-inkscape-font-specification:'Avenir, Medium';text-align:start;letter-spacing:0px;word-spacing:0px;writing-mode:lr-tb;text-anchor:start;fill:#dde3e7;fill-opacity:1;stroke:none;stroke-width:0.9375"
       x="59.027355"
       y="110.92918"
       id="text1059"><tspan
         sodipodi:role="line"
         id="tspan1057"
         x="59.027355"
         y="110.92918"
         style="font-style:normal;font-variant:normal;font-weight:500;font-stretch:normal;font-size:11.71874905px;line-height:125%;font-family:Avenir;-inkscape-font-specification:'Avenir, Medium';text-align:start;writing-mode:lr-tb;text-anchor:start;fill:#dde3e7;fill-opacity:1;stroke-width:0.9375">3</tspan></text>
<text
       transform="rotate(63.801985)"
       xml:space="preserve"
       style="font-style:normal;font-variant:normal;font-weight:500;font-stretch:normal;line-height:0%;font-family:Avenir;-inkscape-font-specification:'Avenir, Medium';text-align:start;letter-spacing:0px;word-spacing:0px;writing-mode:lr-tb;text-anchor:start;fill:#dde3e7;fill-opacity:1;stroke:none;stroke-width:0.9375"
       x="64.072609"
       y="-45.161602"
       id="text1065"
       inkscape:transform-center-x="-14.005045"
       inkscape:transform-center-y="4.0526412"><tspan
         sodipodi:role="line"
         id="tspan1063"
         x="64.072609"
         y="-45.161602"
         style="font-style:normal;font-variant:normal;font-weight:500;font-stretch:normal;font-size:10.54687405px;line-height:125%;font-family:Avenir;-inkscape-font-specification:'Avenir, Medium';text-align:start;writing-mode:lr-tb;text-anchor:start;fill:#dde3e7;fill-opacity:1;stroke-width:0.9375">7</tspan></text>
<text
       transform="rotate(130.90817)"
       id="text1069"
       y="-67.012802"
       x="-29.818478"
       style="font-style:normal;font-variant:normal;font-weight:500;font-stretch:normal;line-height:0%;font-family:Avenir;-inkscape-font-specification:'Avenir, Medium';text-align:start;letter-spacing:0px;word-spacing:0px;writing-mode:lr-tb;text-anchor:start;fill:#dde3e7;fill-opacity:1;stroke:none;stroke-width:0.9375"
       xml:space="preserve"
       inkscape:transform-center-x="-2.9226059"
       inkscape:transform-center-y="1.9484039"><tspan
         style="font-style:normal;font-variant:normal;font-weight:500;font-stretch:normal;font-size:9.375px;line-height:125%;font-family:Avenir;-inkscape-font-specification:'Avenir, Medium';text-align:start;writing-mode:lr-tb;text-anchor:start;fill:#dde3e7;fill-opacity:1;stroke-width:0.9375"
         y="-67.012802"
         x="-29.818478"
         id="tspan1067"
         sodipodi:role="line">8</tspan></text>
<text
       transform="rotate(133.13405)"
       id="text1073"
       y="-105.15271"
       x="-54.877995"
       style="font-style:normal;font-variant:normal;font-weight:500;font-stretch:normal;line-height:0%;font-family:Avenir;-inkscape-font-specification:'Avenir, Medium';text-align:start;letter-spacing:0px;word-spacing:0px;writing-mode:lr-tb;text-anchor:start;fill:#dde3e7;fill-opacity:1;stroke:none;stroke-width:0.9375"
       xml:space="preserve"><tspan
         style="font-style:normal;font-variant:normal;font-weight:500;font-stretch:normal;font-size:9.375px;line-height:125%;font-family:Avenir;-inkscape-font-specification:'Avenir, Medium';text-align:start;writing-mode:lr-tb;text-anchor:start;fill:#dde3e7;fill-opacity:1;stroke-width:0.9375"
         y="-105.15271"
         x="-54.877995"
         id="tspan1071"
         sodipodi:role="line">4</tspan></text>
<text
       xml:space="preserve"
       style="font-style:normal;font-variant:normal;font-weight:500;font-stretch:normal;line-height:0%;font-family:Avenir;-inkscape-font-specification:'Avenir, Medium';text-align:start;letter-spacing:0px;word-spacing:0px;writing-mode:lr-tb;text-anchor:start;fill:#dde3e7;fill-opacity:1;stroke:none;stroke-width:0.9375"
       x="42.955811"
       y="95.525322"
       id="text3417"
       transform="rotate(-10.553303)"><tspan
         sodipodi:role="line"
         id="tspan3419"
         x="42.955811"
         y="95.525322"
         style="font-style:normal;font-variant:normal;font-weight:500;font-stretch:normal;font-size:11.71874905px;line-height:125%;font-family:Avenir;-inkscape-font-specification:'Avenir, Medium';text-align:start;writing-mode:lr-tb;text-anchor:start;fill:#dde3e7;fill-opacity:1;stroke-width:0.9375">5</tspan></text>
<text
       id="text3421"
       y="85.361725"
       x="70.05529"
       style="font-style:normal;font-variant:normal;font-weight:500;font-stretch:normal;line-height:0%;font-family:Avenir;-inkscape-font-specification:'Avenir, Medium';text-align:start;letter-spacing:0px;word-spacing:0px;writing-mode:lr-tb;text-anchor:start;fill:#dde3e7;fill-opacity:1;stroke:none;stroke-width:0.9375"
       xml:space="preserve"><tspan
         style="font-style:normal;font-variant:normal;font-weight:500;font-stretch:normal;font-size:11.71874905px;line-height:125%;font-family:Avenir;-inkscape-font-specification:'Avenir, Medium';text-align:start;writing-mode:lr-tb;text-anchor:start;fill:#dde3e7;fill-opacity:1;stroke-width:0.9375"
         y="85.361725"
         x="70.05529"
         id="tspan3423"
         sodipodi:role="line">1</tspan></text>
<text
       xml:space="preserve"
       style="font-style:normal;font-variant:normal;font-weight:500;font-stretch:normal;line-height:0%;font-family:Avenir;-inkscape-font-specification:'Avenir, Medium';text-align:start;letter-spacing:0px;word-spacing:0px;writing-mode:lr-tb;text-anchor:start;fill:#dde3e7;fill-opacity:1;stroke:none;stroke-width:0.9375"
       x="80.282211"
       y="85.396111"
       id="text3425"><tspan
         sodipodi:role="line"
         id="tspan3427"
         x="80.282211"
         y="85.396111"
         style="font-style:normal;font-variant:normal;font-weight:500;font-stretch:normal;font-size:11.71874905px;line-height:125%;font-family:Avenir;-inkscape-font-specification:'Avenir, Medium';text-align:start;writing-mode:lr-tb;text-anchor:start;fill:#dde3e7;fill-opacity:1;stroke-width:0.9375">6</tspan></text>
<text
       id="text3429"
       y="64.128868"
       x="105.13875"
       style="font-style:normal;font-variant:normal;font-weight:500;font-stretch:normal;line-height:0%;font-family:Avenir;-inkscape-font-specification:'Avenir, Medium';text-align:start;letter-spacing:0px;word-spacing:0px;writing-mode:lr-tb;text-anchor:start;fill:#dde3e7;fill-opacity:1;stroke:none;stroke-width:0.9375"
       xml:space="preserve"
       transform="rotate(11.861174)"><tspan
         style="font-style:normal;font-variant:normal;font-weight:500;font-stretch:normal;font-size:11.71874905px;line-height:125%;font-family:Avenir;-inkscape-font-specification:'Avenir, Medium';text-align:start;writing-mode:lr-tb;text-anchor:start;fill:#dde3e7;fill-opacity:1;stroke-width:0.9375"
         y="64.128868"
         x="105.13875"
         id="tspan3431"
         sodipodi:role="line">1</tspan></text>
<text
       transform="rotate(47.639218)"
       id="text3433"
       y="-19.887999"
       x="56.569736"
       style="font-style:normal;font-variant:normal;font-weight:500;font-stretch:normal;line-height:0%;font-family:Avenir;-inkscape-font-specification:'Avenir, Medium';text-align:start;letter-spacing:0px;word-spacing:0px;writing-mode:lr-tb;text-anchor:start;fill:#dde3e7;fill-opacity:1;stroke:none;stroke-width:0.9375"
       xml:space="preserve"><tspan
         style="font-style:normal;font-variant:normal;font-weight:500;font-stretch:normal;font-size:9.375px;line-height:125%;font-family:Avenir;-inkscape-font-specification:'Avenir, Medium';text-align:start;writing-mode:lr-tb;text-anchor:start;fill:#dde3e7;fill-opacity:1;stroke-width:0.9375"
         y="-19.887999"
         x="56.569736"
         id="tspan3435"
         sodipodi:role="line">9</tspan></text>
<text
       xml:space="preserve"
       style="font-style:normal;font-variant:normal;font-weight:500;font-stretch:normal;line-height:0%;font-family:Avenir;-inkscape-font-specification:'Avenir, Medium';text-align:start;letter-spacing:0px;word-spacing:0px;writing-mode:lr-tb;text-anchor:start;fill:#dde3e7;fill-opacity:1;stroke:none;stroke-width:0.9375"
       x="74.907516"
       y="-43.020954"
       id="text3437"
       transform="rotate(47.639218)"><tspan
         sodipodi:role="line"
         id="tspan3439"
         x="74.907516"
         y="-43.020954"
         style="font-style:normal;font-variant:normal;font-weight:500;font-stretch:normal;font-size:9.375px;line-height:125%;font-family:Avenir;-inkscape-font-specification:'Avenir, Medium';text-align:start;writing-mode:lr-tb;text-anchor:start;fill:#dde3e7;fill-opacity:1;stroke-width:0.9375">6</tspan></text>
<text
       inkscape:transform-center-y="0.69575535"
       inkscape:transform-center-x="-6.5706143"
       transform="rotate(80.057253)"
       xml:space="preserve"
       style="font-style:normal;font-variant:normal;font-weight:500;font-stretch:normal;line-height:0%;font-family:Avenir;-inkscape-font-specification:'Avenir, Medium';text-align:start;letter-spacing:0px;word-spacing:0px;writing-mode:lr-tb;text-anchor:start;fill:#dde3e7;fill-opacity:1;stroke:none;stroke-width:0.9375"
       x="55.597218"
       y="-91.881172"
       id="text3441"><tspan
         sodipodi:role="line"
         id="tspan3443"
         x="55.597218"
         y="-91.881172"
         style="font-style:normal;font-variant:normal;font-weight:500;font-stretch:normal;font-size:10.54687405px;line-height:125%;font-family:Avenir;-inkscape-font-specification:'Avenir, Medium';text-align:start;writing-mode:lr-tb;text-anchor:start;fill:#dde3e7;fill-opacity:1;stroke-width:0.9375">2</tspan></text>
<text
       inkscape:transform-center-y="13.770019"
       inkscape:transform-center-x="10.262657"
       transform="rotate(-128.58256)"
       xml:space="preserve"
       style="font-style:normal;font-variant:normal;font-weight:500;font-stretch:normal;line-height:0%;font-family:Avenir;-inkscape-font-specification:'Avenir, Medium';text-align:start;letter-spacing:0px;word-spacing:0px;writing-mode:lr-tb;text-anchor:start;fill:#dde3e7;fill-opacity:1;stroke:none;stroke-width:0.9375"
       x="-88.169235"
       y="62.59148"
       id="text3445"><tspan
         sodipodi:role="line"
         id="tspan3447"
         x="-88.169235"
         y="62.59148"
         style="font-style:normal;font-variant:normal;font-weight:500;font-stretch:normal;font-size:8.203125px;line-height:125%;font-family:Avenir;-inkscape-font-specification:'Avenir, Medium';text-align:start;writing-mode:lr-tb;text-anchor:start;fill:#dde3e7;fill-opacity:1;stroke-width:0.9375">3</tspan></text>
<text
       inkscape:transform-center-y="2.4528547"
       inkscape:transform-center-x="-16.997619"
       transform="rotate(112.93208)"
       xml:space="preserve"
       style="font-style:normal;font-variant:normal;font-weight:500;font-stretch:normal;line-height:0%;font-family:Avenir;-inkscape-font-specification:'Avenir, Medium';text-align:start;letter-spacing:0px;word-spacing:0px;writing-mode:lr-tb;text-anchor:start;fill:#dde3e7;fill-opacity:1;stroke:none;stroke-width:0.9375"
       x="16.543798"
       y="-51.639248"
       id="text3449"><tspan
         sodipodi:role="line"
         id="tspan3451"
         x="16.543798"
         y="-51.639248"
         style="font-style:normal;font-variant:normal;font-weight:500;font-stretch:normal;font-size:9.375px;line-height:125%;font-family:Avenir;-inkscape-font-specification:'Avenir, Medium';text-align:start;writing-mode:lr-tb;text-anchor:start;fill:#dde3e7;fill-opacity:1;stroke-width:0.9375">2</tspan></text>
</g></svg>